<mxfile host="app.diagrams.net" modified="2024-02-03T14:16:35.567Z" agent="Mozilla/5.0 (Macintosh; Intel Mac OS X 10_15_7) AppleWebKit/537.36 (KHTML, like Gecko) Chrome/121.0.0.0 Safari/537.36" etag="P4J2HpCXFacym-iyVKBF" version="22.1.18" type="github">
  <diagram name="Page-1" id="XGXpIatfN00QPviRksGG">
    <mxGraphModel dx="1434" dy="820" grid="1" gridSize="10" guides="1" tooltips="1" connect="1" arrows="1" fold="1" page="1" pageScale="1" pageWidth="850" pageHeight="1100" math="0" shadow="0">
      <root>
        <mxCell id="0" />
        <mxCell id="1" parent="0" />
        <mxCell id="Y5YauGggSAi3-YsKrnGX-1" value="" style="rounded=0;whiteSpace=wrap;html=1;" vertex="1" parent="1">
          <mxGeometry x="200" y="520" width="120" height="60" as="geometry" />
        </mxCell>
        <mxCell id="Y5YauGggSAi3-YsKrnGX-2" value="" style="shape=image;verticalLabelPosition=bottom;verticalAlign=top;imageAspect=0;aspect=fixed;image=data:image/png,iVBORw0KGgoAAAANSUhEUgAAAIAAAACACAQAAABpN6lAAAAABGdBTUEAALGPC/xhBQAAACBjSFJNAAB6JgAAgIQAAPoAAACA6AAAdTAAAOpgAAA6mAAAF3CculE8AAAAAmJLR0QA/4ePzL8AABrpSURBVHja7Z15gBTVtca/7tmHcYZtgEGGfZGI7FtAZFNBFjEEAVEQlEWUVWSGNZkk4ooaSKIxRoOaKEuMEWOeC2oS5ZmYuOEGQRYjm4ADA8g607/3R92qudXd093Dpu89zv1nqqqr6p5T95x7znfPuSOdo3N0js7ROfr/S4Fv5rVFyaX5ofNOVAtVI4tQ8vYgKV8k7yk69H9YAEWph/oVDyq5sCSvuMaeKruST0TpSm6o+rHqB6rtqflB1TeqrL5j5/8JAczP3zttV+8vmm7I/jpQuY41PN5ic/6a3EfuWPe/VAAzR+0cu6HzhzmlEVdqqI7qKFfZSlGWpBKFdEA7tEfbdDDi1xccaftm/bvvefV/kQDmdNp6+z96bUm1zzVXN7XRhWqmPKXFuHeXPtV6va2/a4Owzrc80un5/FsXbf/WW9UpBV33JCGvVecanuRLolEZxeynIvqKFYyltvWsrNDAdbP7f4tHwOSfvDnzwyru0XkaqtHqpSTv+nZ9qM3arC3arG06pKPeldqqpbpqpO+opdqphvXMkP6qp/SM9pnjoHpvbT/p3pe/dV9+xvh2JeXfqj3L+Np8yRAf8zCjaWh9y9itOaN5jG3WaDjMY3T0ridx+cY57b5FzM/p0PvzgOlcgCH8zev4uxRWgvHw1oof8JElhr/Rz1KHa58ryvwWMF+Ufu0fs0JutwbxL9PZXRTRPAZz13AX1yJEC+7iLpIr/OWF/Jj1nhD+QW/vSrMjt173DbN/2+BWh8qHvfvlP2MaGXG+7nJgJUIMBCDVutaU+hG/78DDHDLPX+2JNoVRrxalflPfPjjq+XTP1j9CGQAfcxVBq+NpDODOKOJYAawwowYgxbr2JPAxd3ExAd89uSyixNiEWbhzTbuSb8QezM/vsb184DsGaw+3RAzluQCs8glFiJXAcoQYDOC772EOmG+9jYdo47uvGj+jFIC3aGnO1SibOu0ssz/z+vNPuB1aZeb0n1I1ylD/qWHl7igCeBohrgQgyXc1jdfBMHpVxDPb8iYARygwgk1j3GNnkf2JD6SZrnRjKwCbuaQCXX8K+AsAk3znnwReQohxwJGwu1IpAabQjoVUifLUANezB4DnOM+cG7HmLLE/+pmg6cQ0jgPwuNeJyPYaMJJ7gFIGW+cLgBPcwiA+Ad4Ku6sfQJQJtC9NvL/r8QYAG2hhzgxcV5R8xg3fVW+7BmkNAIcYEdPafwQs5ncAHKC1d74G/7Fc4ivC7vo58G7Es2qxh68tlUjmbkLAXvqaM1d8UhQ8owIY/A/nRS3ZZIZ+G29Q9uRWbqFpWKd3GyZ3sAP4D3W9K3ncwxrWsoxuEaxuAYoizv4eKAmbIgdRDJzgGnM85L0zyP731zov6UMxAK9Rw7z2fNZ6X/N2q3vJlAG/pBtBLmQtCxPyC9sD0C7s7EgAJiJEQ2Z4ZvMitgOljDLHw/52htgf+bJ5gdH8P+J6AZl8ChxiDbvCzF1dAM6vpAtcl3msDvMBarMHKOMmAgRYAzznXWvAeqDUeJZi3KNngP3xi50ODfEMX/nMPQXYQT4ig9eBLZY3/zI3xXBzE2/PeNPiGn4EwHBf0P0WUMp1Zg6ZPuu0z/uOL3cFRwG4z/d9VgI/N3/3BCAnQbbyqBl1mouMHAAmcLWZ/OCPYb/I4X3gBAMc7yRU2O00sj+vde0yITpzGICfRXFqXrAEcMzn2fvbeT6fcDCLaWwdV/Gsir9N5jAvE0DksQ/YTW4UYW4CDtHJsQwHi7JOG4Tdea/zAsfhfTRMO8VkIMQsUmnIP4E/RGUiQHfOI5d5nkoMpgdikieC+kxBdIgwf07MmI8QNwNwddQ3NGUX8KWZiQa/f5oEcM2LjrP53wC84gtbXMd1nRW176ZR2PVMRAoLqGY8CEcEDvtC3ERjRH1uMcff5XuIINUj3tSQA14QFa214yCwkZqIAFMXnA7tH5fiuSbwSVR/X9Tmj4SAEC/TLOJqbwZTQLYV0Mzme1xs/WISPTz2hejKMGZRM+JJjXmTL6MM//J2LQCvkozIK53f4FSHf2bzI0JcSgg45MVf0VodOlhujt+zf5jv+86M4kHf3FCfpy0nVySxlLFRnxWMCbMI8QgAixHi8o2nZfhn8zmAmWQSa1neAE6lgGx6W+7u1fSgGrM9ETTgFsQkTwRJzKImXRnq3dEmwu5U3DJYB4To56jBjFMZ/j0yLZn+rlLzdoBp1PXYdwIZx4sfbnTfFUEDb/BPpInHvmMLRhl3t1+l3n0Bh4DPyUK0OFKUftIC6LlNiE6UATsrmKBii6AhBVak2IerPPaFqMpsmvh0fyLNfbrflVEM4vJKu02FAPwAIUavPGnnxxl2DtI37CS8tzSe80JVp/2Yub7ji/iDzxYk8XsL/hZiFneFiTWRN6fyKXCQ2ojqZfPyTkoAnYodfXXcz8RYTmKc5+g4g3+aFQkMozN9+J7lw99MVcsWJHEbNZhoRZQD6EV7RlpRQr0ERdAXgKVOGHUyyyhTCpwubQSO852Ev3ptZhJEpFLIeY4ZMiIYRmeE6M4QM6ff7ClCsse+owhNDV7c00SHI808M4NgwqNgBXCM+oic0IJGlRaA4/05PvgvKzXwazOTdMO+awvqeey7InDZd0WQ5rEvxASaeuy7IqjDjErMBaI+x4E7Hbjslcri/UOcV70DHDVOaOKtHs/7wqEAy8xXd9sIfuU7rsGfqOM78wvG+I4v4/FKsS/Eb4A9pCNyy4qqVkoA/Tc4sV+00KciJ1SW7jc2iuDqfhdutaCQJnSjLnlke60R1RhsOdkD6clky+2qx2zae6iPCJKVQJ++QwiMQ3XjI5Vgf25zB+p4ESj1RWuxjE4/Y/kLyELU8kRwNZ0QAWYaEeRRhQ7cwdOs9Noy5lCTPGMO3cF/k7E99biNAKKdEUGA6WHjpaL2HPAPxzc4XBns58/Oa0uB3yc84PrSjzQKvW9Ti1sJGvbliSCPNFZEzQc4wgSqk8wgC2KfzHfIZ7Y3+NtxDQGmk5dgn7oBmOhk5qiEw9/8E0L8EKBCvD9a68+jvqFZi8fp4rMFP6IayypMiQgxmEvo43vmrSz26X57nkiYfSH+CcyPER5HAZF3z/0iWQpqrKTP9EbC4yZNbfSsLrbO9NLv1N16RTO9rFyNjpGtsVhr1Vwp3pl8BfWxWlq/6KEn1bsSo/kJSSMkSWtbJwiR9N0iRA8A5sWVcI7RxgwWkmXZAjGcTp4iOGkP48ngHmJTB9JZgLPylM8UAoixxhYEmEEeoq2HAMf3T2pyHIw5venORBSgZpWQEPcDJGAAHY102Xc8/v6I4Z5Lm8tckmjOeESQDXEEsIRMclhAGvlM8d5yPRcSpNAb/I4I+iYUJawBZiceHE98wLltE/BhgkHPbdzj0/0+3OHz6HO5jwkG0IhHOwkicriXGb63jOV+n+Vvy6IEY8SpwGvOaCiLXDqLsAHbLpekNmos6fmEVCZDmdqjbOtMTX2hmtZxdX2hXCUrTfENcR21k5SjXTrPSqcLqra2+pKnwt9RMT0v6WLlSNob3Dcu7s+bHRFiDgBdE5BvJoVkEGC6hwY5g78cAGnBjYhcZpPMu8SnJeQwBZHNQmMLkphDHaMIzjMvpR+ijbcUErttBQOuDItn0xc0cQzWaqA4IqmhIvZdW1AXMYIOHhJ4hce+gyvVJZSAAHZ6761CIWkWQOKK4FJP9x0RxHORlwEPOIk2++IIYOosh5ndwCtx2b+ROVbyS4Bp3OSx74hggse+SGEqiVEHa51gLoU+cHQM432mrw03h2EOkW0i8HfzvHB8KMwGlHR25utcSf+MI6ygGqlMx7xjdEBNZad471RzfWXN4cMSnLvHyM1/Oyqpiuws+h1qrh2+1NpGqh/nee9Jaq8MSV+rZGjMnw5c50g5EQyoExle9O8Mzw4ELADkAm4wMJirAqUJjgBXCZzBX4VCbxn2Mi5DjKGVD31oHWf1MYMTYBbhxyxPAAVYDBCxvBEJO9kAyFgzcF0ROOzLE0EqN5A4dfaBo64IysFRRwTl4o8XG/4bjDIOjJ183+Sou9Z3PAETWP4Vxll6G2AaPT32HREMoyovVEIASzjfB45WoZChPt0fTS9fyB27vQQGW+y6J6YN2JvqeODSDoUS1NgvdUIt9Z5lC9Zokl6yfvGmGuqY+lTCgx+undquvd7x19qsgbIzH17ReL2WcB83S2ru9DYnlhtc1ZlQ/gO8GUemVa1vcZHPFrTkBgsJdNDBNIZSOepIPQsMHUAvny2ow0wCjOaiBLHihcA6MxfdnxFjGdwxPSeAp+I8spYZkG4nXBG0ZJzp0lTqGXzoPDJZXkkBLCHTA0MH0MvzOtI99svfHrCihujtZmCH+TtGXmnhJQ4+h+c4xGqXcrlljx0MqC3jLVswk2ZmYSTZpLgmTs5M0J6RPnA0k0Ia+MDRsXS0vNCK2nDgmLvS0K9CG1CWI8lE48fi6tUa9VWGPirHEfS+5uoxyxY8qPv1gg4qoEt8sUIi5MQE76qWuuiv3tnD+oMe1K+sYprHNVMbfJ5BNDooKVUOHEBuhQIgS5KSExTAGD2pTbrcO26jJpqqGd4j0zRdo3S5GipD15zEysQYZWqgPtCz1t31NETDNVUZnnM1TbNVWx3iPMsp3HI+wvHcCn82a5izYAGwIM6g6mAGvwuAtDHzrAuAuOhggBsJspPK006CJhxzwdB8A466EYgLkIjr42Qa9bKy1W4uipH9L0QzAAripjfZYGgba+m8FreSYYGjAbpyctTJiv5H+cDRTArJ9IGjVRMWwJTbKlSB4FFJKpMkxatCKPf5X1UDjdJvLVuwUqv0kOfBp2v4SS7PXufFBO+rWD/RYk/3D+vnWq7VVi/2x8EsHIWRpKSSigWwV5KKJUk5cTqXZen+13pZ/a2XjdMU3eJVix3VkJMUwNVeXVm+mmqJZQuCmqIZuk5eiZoFpEYHbCXpiCOAimVVlO0M2RPAI3FtQJ4VkZfbAhcdzGWeSWZtyclTRw8cdRThWrMuVEgdRKaXTN8rTm+vA8pMfwr6xpCUA4juAVbF9QOmk2fhsw4YaoOjjgjqU3QKAlhCdZM8V24LggYfKhd3X7rH6WsBsM+tYWkeQwDOksiGhDICAtzjy+4QV/CEzxrn8huS+fAUBLCDILeFrUEu94GjGfwmSk1JeLsf+MxN2YsVDNU65Bq4JnE1tI0+ULLqeseZ6qjl6mH9orfu1/lqdQpZSnnqpL/qQu84Sf30iOwx3F1/0EVxTXZdSVudJx6P+cPLNwrxK6AsTuFbkGssJLB8bi4HQ0fQgVRmcWq0hEwPDHURgnIw1EEH0+Iu4L8JPIwQXfbEDkNfddbjAC/Sir8wUtcCR10ROOBoiskvPTUlcAAQGxx1RHBpgulTAfYDc5z1y09jqkC1dyRpgySpRUKDFC3VKM3XUjPJSK/rqO7TZ3pHUhV1OcVMxTy1k/SEOuouPe4hBB/oI92noBJL/mmoHEkO5zU/iimA7BfKBdA6wS5mKFnFqmadaaDPlC8pWcN06iU8Y5SpJNXQVtWxrZU2xgVDy62VJP1LklQjTGZhS0VV3sjmQGCLSpTjM2cVU6amaomOaqqekbO7wVh9qHfUR0P0YlQc+GN9EsNYdY8s1NFMjdfj2qsxkok+B+mEfqk2Gq9fJ9DH9pJ2abukJFV7Ns6Pu+wV4gXgcIysf9cQZnoojQuGjvXQwfZU4VgUrb6UTJMYk08NsqlLbXNcnZpRkeMu3uTq4A/l4KgLv8RubwGrTbl1/OyQl8ozLbvFeXAX5ngglSOCaZbpDDI8CjMHfen2E5nmyxrPMEWWkTNBOQA3xWf6Wvr2mIjWalAKzDRldXEXR2s9K8mkRVwSR1jrdFTHLXO4X3VNJOH439GCoP/yee3FqqNdPp99ZcyYQNqnfN/iyy59GaeXlylJklNWWn91/PyArCohkcrXXnpRrJZtgaGjucgHhqZ4JdA2Daezt4wxjC4mJ9AthxhANVOFHn2xzEEHy8HQOgkkSz0F7CSASGZ+fgIm45LtbpFiKIEEidoGAHHRQRcMzaV/FEZOkEWWyQwtT510EuKc1MkUUxAbrgRZVvaYGE1rRB0rob6iVo0jnhPUriQhu37Dwy6M6DoP8fDhmVxv6X6AmfSnEUujMPIaqSYzdISVOSom05+pBkSfEuW+T0niSgscFWO5wuR9xG5TjOEVYuSfExLAgibJiEwOAe8l5GlN4W7fGk1bVlCVZ6MwMtXMLNez1GcMm7HCy/epGWUR/RDiHp9zXs+6I1Z7F9hNMiJA4cUJOg5d9rgLZESt4Aqv1WplpUKJNownQGMejCKAOl7qZA4FngiaMdXkBKoC9/kzM+VmWJmjAWrF7dvFVs543NyAcpqw1Mn6A/hNgqtvrghccDRocDibXiTVyxyVJ4JmZvC72WBpjI648z4yrYDLBUfjtz8BGOs0blnipVJVc0IiwEfA0bjzrC2CdhY4msLvfUyUcAEXWpmjIofZtPTYd0RwETeQzN99d37hZZ5nUkizhNlvQQhY6xRshuafXwn/28kTuNEqPEmk9ea3PluQwsOeZ/cxbUljThi80YFVPluQwjN8lyCZPONZgrepZ/mkzflTQonSzl4kgMGsrqxcWf2MPkFEOruAYlPwGK+14VqTE+h6dSNJpw5XMp6OJJHCUDqZokh5qZM5XlqkSGE+1bmeCwmQRgNGMo7WJFszTD5TyPR2DomXInkY2GSKMeb0qmQM1mOHENMAWJSQAJpYaZGy0MGupnbATZ10RdDcrCO6IiivLXUBkGbUs9Ii5aGDSQn1x8l0m4wQPSq/C930Sc6svBE4lLAdcMHQbAscFTfRyMocdUTQwkqfymEhWR77rggGW/VlbRnlA0cTqV7aAvyHdESAWSezNvfd3Y67CvBYpSo16vNKWAH9IxEVI78IG65rwpzaB8IqRvqxrFJ9GAVesUSfz08KiJg2PIAI8AYQ8nlh8So3C8m3asSdwT/JcqtbcKOvLjSVAs63bIFTWF2eFukUVrfx7UITu6WzBfiQJEQyc052D8I+W5yM7GPAJ3HRgXIBpFl1oeWpk64I3MHvisCtLXXSImXVlbvxhVtXHkxYAAsAzN4yAz88aTBqXuvskJBZ2ri9kiVLjghGWOlTk2ji0/2uDLVKa10RXGkhBGNoZZXVJ9pacxR4wrFIZSdRMmctTz7r1AF9DJSF1XIkIoLlvooR8cOw8OoSnrLK6kUVHo+oGFkU4XCNZFyMOvZ0PgD2Gkf5xgdPCZAsSne2y+vAMWBHAt633fLpbNWFOrmDk6wy+VQKuNRaXBPDucxKhRINGOHD/AP8wIPZnq5g5eLX1h4Tnb865Y2VCno764UzKtw/wj/5tAo7k8IoIwI3ddIVQarJH+rqicAprC7PBsuLwCMWAfBvs13PkxXkBWNmjJxQQVedOl3/tCP75yDuqvEtlPKzCGNVmyBNrdTJiTTx2HdswbWI4Z7uV2E6KVGMbj2OA+MRSfwCCEXsWzWQE8B6o1aT7tXpoT6fO3v1OOUuhTHCoeIKvkt4Jt/N3O3bgK09D4RZi4oWubd4mn4QrExCJ3v5kAm6hOi/XqeLZtVsftiJ/J3dnG6IUapaYvIGJtE+Bpzeiyt8qW1daBc3N9nZeO8rM1UG+Qp8nkFTvgRKudLZwunrO6vp9NHsnjXLHIDhKBAyHra/dScEvEoWoiXHKA3z/k6udeEey4gCPEw6yRQBByx/s5HZ3m2yqQ6a20Wnl2aMdozh9zkOlFmzuWv+3vOi9+GsAT5PaI+o2G2QleHpjjEoYR8AN1k7z+4Abwe6NM7IFpu3LEi1NlML8UOfXk8FQkyzqoL8+8Ykc6Vvxo+9AUsfI9S5wEZfiv6vDMKw1/oE7c2mfQuNckz4qc4M3bzQmZ6Gmg3VlnmWOpnNxvdKosDAX36mvgucSKgQfxiHgJ9wL9shCjBblyH0snyFy9hvdrIypvJZnTma/KM0UyXs5P7+xcvUy+VBE8/dCxyN2O3nB8DWKNXGq9nKep6zwNckD0or4e04eesBCikFTnhb+F39F51ZmjLTiQ9ascVsnNU/rGb/eNS44Q1veaK8fc8CwA9Ys0AqLwIh+jImyliyVWWVuXeQy/7rOvM0a1jtUmdZaq3ZQ3KR5R8O4iu2WouZ7h5yx6NUIb0FvE9HBnIIuMMXUf4V2Mv9MQr42/Gx8QsvcPecfElnhwo6tjroaP4is5K3ziqyrOkrnXOC2CuB0ojN0Yo9S/60t4BdjhK9A4SAx6MGPD80McEKgyOlMOEJnT0qyu6/3s3C/cKMg6VRrXwT9rKS14G3I659ZRxbZ/vlv0WAms4X/nnEfT3MZusHzA6jompo6iydbRr/UE7ISVN+0IyD3cywUB0X3XPpSx6yEGG3NGe6F+S8E8Ho+bzPo9ZWvE759TJjOV7xrEazI7MH6Jugea277Xb10V3K2Mq4sIgxjzGsZG+UKe1Tb3eHecD6uBNkAx4xE/B2RpdXrmwqqqVvioqC163KMJPXDWw2QtjO/Ig9/4J0Yq4pore3t3BM3zRgW5wVyIeM1h/gds/HrBoa/5C+aZo9oG2JG/tPNBvvwREeo3ccBP82FpsJrBlXmyXsaDuSDeUlo2T7+bG13VLPbfNa69tARcEJP6tb6s7h11j/YmMHS+me4EJGtNr0ATxq/H74jEKrLCL/REIbYpxFIdS86pVMaz/hXxitd77b88yiQ8KCyOAS5vKi2cMWjrKcvlbkUS005k935Zyefp/Wf7NT0PVfK16vj5eC2FNDdZWVTn1MG7RB6/Wpdmu/9mm/9itN6cpQujJUT/XUQC3VSk299MV9+i+t1osqz22pRt+1F4y5fYu+rXTbkEs3J/uMXwems8qEq4nSPv7MQnqGVYU3PnbdqtNt8c/Iv9oq7Lb5zrXddyT5zzZWazVTMzVVM1VX5H/I2a7N2qTN2qQP9GlYVXAW3Ta1fGDJg6e/r2fsn60Vpe6dsWXMvy74Min69WRlq6pydETHVaJSVZTAVTvUbmPjp2s9UHTgzPTzDP+7vaJgycjdwz/v8knt4kr+s70GJxrtzH+r1pOLXzizPTxr/3BxTqcDA4q7lDQszt2bXZyyL+K96apeVu1o9ZIa23L+nf3P7GcXfXF2+vUN/ctNaUGTY/W8BNltocNn5/9LnqNzdI7O0Tk6Rzb9D/sA9Z1CffjjAAAAJXRFWHRkYXRlOmNyZWF0ZQAyMDIyLTAzLTMwVDE4OjUzOjA1KzAwOjAw3VR4ogAAACV0RVh0ZGF0ZTptb2RpZnkAMjAyMi0wMy0zMFQxODo1MzowNSswMDowMKwJwB4AAAAASUVORK5CYII=;" vertex="1" parent="1">
          <mxGeometry x="100" y="210" width="128" height="128" as="geometry" />
        </mxCell>
      </root>
    </mxGraphModel>
  </diagram>
</mxfile>
